<?xml version="1.0" encoding="utf-8"?>
<!-- Generator: Adobe Illustrator 22.0.1, SVG Export Plug-In . SVG Version: 6.00 Build 0)  -->
<svg version="1.1" id="Capa_1" xmlns="http://www.w3.org/2000/svg" xmlns:xlink="http://www.w3.org/1999/xlink" x="0px" y="0px"
	 viewBox="0 0 792 612" style="enable-background:new 0 0 792 612;" xml:space="preserve">
<style type="text/css">
	.st0{fill:url(#SVGID_1_);}
	.st1{fill:url(#SVGID_2_);}
	.st2{fill:url(#SVGID_3_);}
	.st3{fill:url(#SVGID_4_);}
	.st4{fill:url(#SVGID_5_);}
	.st5{fill:url(#SVGID_6_);}
	.st6{fill:url(#SVGID_7_);}
	.st7{fill:url(#SVGID_8_);}
	.st8{fill:url(#SVGID_9_);}
	.st9{fill:url(#SVGID_10_);}
	.st10{fill:url(#SVGID_11_);}
	.st11{fill:url(#SVGID_12_);}
	.st12{fill:url(#SVGID_13_);}
	.st13{fill:url(#SVGID_14_);}
	.st14{fill:url(#SVGID_15_);}
	.st15{fill:url(#SVGID_16_);}
	.st16{fill:url(#SVGID_17_);}
	.st17{fill:url(#SVGID_18_);}
	.st18{fill:url(#SVGID_19_);}
	.st19{fill:url(#SVGID_20_);}
	.st20{fill:url(#SVGID_21_);}
	.st21{fill:url(#SVGID_22_);}
	.st22{fill:url(#SVGID_23_);}
	.st23{fill:url(#SVGID_24_);}
	.st24{fill:url(#SVGID_25_);}
	.st25{fill:url(#SVGID_26_);}
	.st26{fill:url(#SVGID_27_);}
	.st27{fill:url(#SVGID_28_);}
	.st28{fill:url(#SVGID_29_);}
	.st29{fill:url(#SVGID_30_);}
	.st30{fill:url(#SVGID_31_);}
	.st31{fill:url(#SVGID_32_);}
	.st32{fill:url(#SVGID_33_);}
	.st33{fill:url(#SVGID_34_);}
	.st34{fill:url(#SVGID_35_);}
	.st35{fill:url(#SVGID_36_);}
	.st36{fill:url(#SVGID_37_);}
	.st37{fill:url(#SVGID_38_);}
	.st38{fill:url(#SVGID_39_);}
	.st39{fill:url(#SVGID_40_);}
	.st40{fill:url(#SVGID_41_);}
	.st41{fill:url(#SVGID_42_);}
</style>
<g>
	<linearGradient id="SVGID_1_" gradientUnits="userSpaceOnUse" x1="272.5764" y1="161.0522" x2="547.0523" y2="459.2955">
		<stop  offset="0.1054" style="stop-color:#39C6FB"/>
		<stop  offset="0.5194" style="stop-color:#5A48F0"/>
	</linearGradient>
	<path class="st0" d="M398.3,164.2c78.1,0,141.4,63.3,141.4,141.4c0,18.3-3.5,35.7-9.8,51.8c3.2,1.3,6,3.2,8.7,5.2
		c7.1-17.6,11.1-36.8,11.1-57c0-83.6-67.8-151.5-151.5-151.5s-151.5,67.8-151.5,151.5c0,19.1,3.5,37.3,10,54.1c3-1.6,6.1-2.9,9.2-4
		c-5.9-15.6-9.1-32.5-9.1-50.1C256.9,227.5,320.2,164.2,398.3,164.2z"/>
	<linearGradient id="SVGID_2_" gradientUnits="userSpaceOnUse" x1="409.9336" y1="214.7124" x2="385.3921" y2="529.2307">
		<stop  offset="0.2135" style="stop-color:#8DC124"/>
		<stop  offset="0.5432" style="stop-color:#008937"/>
		<stop  offset="0.7649" style="stop-color:#00612F"/>
	</linearGradient>
	<path class="st1" d="M549.7,388.7c-0.1-0.9-0.2-1.8-0.4-2.7c-0.1-0.6-0.2-1.2-0.4-1.8c-0.2-1-0.5-1.9-0.8-2.9
		c-0.2-0.6-0.4-1.2-0.6-1.7c-0.2-0.6-0.5-1.1-0.7-1.7c-0.2-0.6-0.5-1.1-0.8-1.6c-1.1-2.2-2.4-4.2-3.8-6.1
		c-3.6-4.6-8.1-8.2-12.6-10.3c-2.3-1-4.6-1.8-6.9-2.3c-1.4-0.3-2.8-0.5-4.2-0.6c-6-0.4-12,1-17.1,3.8c-0.1,0.1-0.2,0.1-0.4,0.2
		c-0.5,0.3-0.9,0.6-1.4,0.9c-1.5,1-3,2.2-4.3,3.6c-0.3,0.3-0.5,0.6-0.8,0.9c-1.4,1.6-2.6,3.3-3.7,5.2c-0.9,1.7-1.5,3.3-2,4.9
		c-0.1,0.5-0.2,0.9-0.3,1.4c-0.2,1-0.3,2.1-0.4,3.1c0,0.6,0,1.2,0,1.8c0,0.7,0.1,1.4,0.2,2.1c1,7.4,5.8,13,9.7,15.1
		c6,3.1,15.4,2.4,21.7-4.4c0.8-0.8,1.4-1.6,1.8-2.3c-3-0.7-5-2.8-5.9-5.4c-1.9,1.8-4,4.6-6.9,4.8c-2.4,0.2-5.7-0.3-8.2-2.3
		c-0.1-0.1-0.2-0.2-0.3-0.3c-0.2-0.2-0.4-0.4-0.6-0.6c-0.3-0.3-0.5-0.6-0.7-0.9c-0.2-0.2-0.3-0.5-0.5-0.7c-0.2-0.4-0.4-0.9-0.6-1.4
		c0-0.1-0.1-0.1-0.1-0.2c-0.4-1.2-0.6-2.6-0.6-4.3c0-1.7,0.4-3.6,1.1-5.4c0.8-2.2,2.1-4.3,3.8-6.2c0.5-0.5,1-1,1.5-1.5
		c1.1-1,2.3-1.8,3.7-2.4c0.3-0.2,0.7-0.3,1-0.5c0.7-0.3,1.4-0.5,2.2-0.7c3.8-0.9,8.4-0.6,13.6,1.8c12.4,5.8,17.8,16.7,16.7,27.4
		c-0.4,3.5-1.4,7.1-3.2,10.3c-0.9,1.6-1.9,3.2-3,4.6c-0.3,0.4-0.5,0.7-0.9,1c-28.9,25.6-80.8,11.9-102.2-4.5
		c-10.9-8.4-15.8-26.7-15.8-26.7c-2.2-7.2-4-16.1-4.7-27.7c0-0.7-0.1-1.5-0.1-2.2c-0.1-2.2-0.2-4.6-0.2-7.1c0-0.8,0-1.6,0-2.5
		c0-5.1,0.2-10.6,0.6-16.6c0.1-2,0.3-4.1,0.5-6.2c0-0.2,0-0.5,0.1-0.8c0.1-1.2,0.2-2.4,0.3-3.6c0.1-0.5,0.1-1,0.2-1.5
		c0-0.4,0.1-0.8,0.1-1.2c0.1-1,0.2-1.9,0.3-2.9c1.7-0.5,3.7-1.6,5.9-3.1c0.4-0.3,0.8-0.6,1.2-0.9c0.9-0.7,1.8-1.5,2.7-2.4l0,0
		c0.4-0.4,0.8-0.8,1.2-1.3c0.3-0.3,0.5-0.6,0.8-0.9c2.8-3.4,4.9-7.6,5.2-12.5c0-0.5,0-1,0-1.5c-0.1-5.8-3.2-8.9-7.2-9c0,0,0,0,0,0
		c-2.6,0-5.6,1.3-8.3,4c-0.3,0.3-0.7,0.7-1,1.1c-1.2,1.4-2.4,3.1-3.4,5.1c-1.8,3.5-3.2,7.9-3.9,13.2c0,0-2.2,0-4.8,0c0,0,0,0,0,0
		c-0.5,0-1-0.1-1.6-0.1c0,0-0.1,0-0.1,0c-0.2,0-0.5,0-0.8,0c-0.1,0-0.1,0-0.2,0c-0.3,0-0.6,0-1,0c-1,0-2.2,0-3.4,0
		c-0.3,0-0.6,0-0.9,0c-3.3,0-6.6,0-6.6,0c-0.8-5.9-2.4-10.7-4.4-14.3c-1.2-2.1-2.5-3.8-3.9-5.1c-6.9-6.8-15.3-4.7-15.5,5
		c0,0.5,0,1,0,1.5c0.4,7.4,5.2,13.4,10,17.1c0.2,0.2,0.5,0.4,0.7,0.5c2.3,1.7,4.6,2.9,6.4,3.4c0,0,0,0,0,0c0.1,1.2,0.3,2.4,0.4,3.5
		c0,0,0,0,0,0c0.1,1.2,0.2,2.3,0.4,3.4c0.1,1,0.2,2,0.3,2.9c0.2,2.1,0.4,4.2,0.5,6.2c0.3,4,0.5,7.8,0.5,11.4
		c0.2,6.3,0.1,11.9-0.3,17c-0.2,3.6-0.6,7-1,10.1c-0.1,0.6-0.2,1.2-0.3,1.8c-0.2,1.2-0.4,2.4-0.6,3.5c-0.1,0.5-0.2,0.9-0.2,1.3
		c0,0-0.1,0-0.1,0c-0.8,4-1.7,7.6-2.7,10.9c0,0-5.3,17.4-16.2,25.8c-21.4,16.4-72.8,31-101.7,5.4c-0.3-0.3-0.6-0.7-0.9-1
		c-1.1-1.4-2.1-2.9-3-4.6c-1.8-3.3-2.9-6.8-3.2-10.3c-1.1-10.6,4.3-21.5,16.7-27.4c5.2-2.4,9.7-2.8,13.6-1.8
		c0.8,0.2,1.5,0.4,2.2,0.7c0.4,0.1,0.7,0.3,1,0.5c1.4,0.7,2.6,1.5,3.7,2.4c0.5,0.5,1.1,1,1.5,1.5c1.7,1.9,3,4,3.8,6.2
		c0.7,1.9,1.1,3.7,1.1,5.4c0,1.7-0.2,3.1-0.6,4.3c0,0.1,0,0.1-0.1,0.2c-0.2,0.5-0.4,1-0.6,1.4c-0.1,0.3-0.3,0.5-0.5,0.7
		c-0.2,0.3-0.5,0.6-0.7,0.9c-0.2,0.2-0.4,0.4-0.6,0.6c-0.1,0.1-0.2,0.2-0.3,0.3c-2.5,2-5.8,2.5-8.2,2.3c-2-0.2-3.7-1.5-5.1-2.9
		c-0.6,2.8-2.6,5.2-6.1,5.6c0,0.1,0.1,0.1,0.1,0.2c6.3,6.7,15.8,7.5,21.7,4.4c3.9-2,8.7-7.7,9.7-15.1c0.1-0.7,0.1-1.4,0.2-2.1
		c0-0.6,0-1.2,0-1.8c-0.1-1-0.2-2-0.4-3.1c-0.1-0.5-0.2-0.9-0.3-1.4c-0.4-1.6-1.1-3.2-2-4.9c-1-1.9-2.3-3.7-3.7-5.2
		c-0.3-0.3-0.5-0.6-0.8-0.9c-1.3-1.3-2.8-2.5-4.3-3.6c-0.5-0.3-0.9-0.6-1.4-0.9c-0.1-0.1-0.2-0.1-0.4-0.2c-5.1-2.9-11-4.2-17.1-3.8
		c-1.4,0.1-2.8,0.3-4.2,0.6c-2.3,0.5-4.7,1.2-6.9,2.3c-4.5,2.1-9,5.7-12.6,10.3c-1.4,1.9-2.7,3.9-3.8,6.1c-0.3,0.5-0.5,1.1-0.8,1.6
		c-0.2,0.6-0.5,1.1-0.7,1.7c-0.2,0.6-0.4,1.2-0.6,1.7c-0.3,0.9-0.6,1.9-0.8,2.9c-0.1,0.6-0.3,1.2-0.4,1.8c-0.2,0.9-0.3,1.8-0.4,2.7
		c-0.2,1.9-0.2,3.9,0,5.9c0.5,5.3,2.7,10.7,6.1,16.4c10.2,16.9,35.3,21.4,36.8,21.5c54.6,3.2,76.6-14.6,89.6-31.4
		c1.2-1.6,2.2-3.3,3.2-4.9c0,0,0,0,0,0c0.2-0.3,0.4-0.6,0.5-0.9c0.4-0.7,0.8-1.5,1.2-2.2c0.2-0.4,0.4-0.7,0.5-1.1
		c0.4-0.7,0.7-1.4,1-2c0.3-0.7,0.6-1.3,0.9-1.9c0.3-0.6,0.5-1.2,0.7-1.7c0.3-0.8,0.6-1.6,0.9-2.3c0.9-2.6,1.3-4.1,1.3-4.1s0,0,0-0.1
		c0.1-0.2,0.2-0.6,0.3-1.2c0.8-2.9,1.4-5.9,1.9-8.8c0.6-3.7,1.1-7.5,1.3-11.4c0.3-3.8,0.4-7.7,0.4-11.5c0-11-0.8-21.9-1.5-31.7
		c-0.1-1.2-0.2-2.4-0.2-3.6c0-0.1,0-0.2,0-0.2c-0.1-1.2-0.1-2.3-0.2-3.4c0,0,0,0,0-0.1c0,0,0,0,0-0.1c0,0,0,0,0-0.1c0,0,0,0,0,0
		c0-0.1,0-0.2,0-0.3c0,0,0,0,0-0.1c0-0.2,0-0.5-0.1-0.5l1.3,0l0.8,0l9.4,0.1c0,0,0,0,0,0c0,0,0.1,0,0.2-0.1c0,0,0,0,0,0l0.8,0l5.3,0
		c0,0,0,0.2,0,0.3c0,0.2,0,0.4-0.1,0.6c0,0.1,0,0.2,0,0.2c-0.1,1.4-0.2,2.8-0.2,4.2c0,0.1,0,0.2,0,0.3c-0.1,1.4-0.2,2.8-0.3,4.3
		c-0.1,1.3-0.2,2.6-0.3,3.9c-0.1,1.2-0.2,2.4-0.2,3.6c-0.1,0.9-0.1,1.8-0.2,2.7c-0.1,1.3-0.2,2.6-0.2,3.9c-0.1,2.3-0.2,4.7-0.3,7.1
		c0,1.5-0.1,2.9-0.1,4.4c0,0.1,0,0.1,0,0.2c0,1.5,0,3,0,4.5v0c0,4.6,0.2,9.2,0.6,13.8c0.3,3,0.7,6.1,1.2,9.1c0.5,3,1.1,5.9,1.9,8.8
		c0,0.1,0,0.2,0,0.3c0.1,0.4,0.2,0.8,0.2,0.9c0,0.1,0,0.1,0,0.1s0.4,1.6,1.3,4.1c0.3,0.7,0.6,1.5,0.9,2.3c0.2,0.6,0.5,1.1,0.7,1.7
		s0.6,1.2,0.9,1.9c0.3,0.7,0.6,1.3,1,2c0.2,0.3,0.4,0.7,0.5,1.1c0.4,0.7,0.8,1.4,1.2,2.2c1.1,1.8,2.2,3.8,3.7,5.7
		c12.9,16.8,35,34.7,89.6,31.4c1.4-0.1,26.6-4.6,36.8-21.5c3.4-5.7,5.6-11.1,6.1-16.4C549.9,392.6,549.9,390.6,549.7,388.7z
		 M414.8,294.2c0.2-0.4,0.3-0.8,0.5-1.3c0.5-1.3,1.2-2.7,1.9-4.2c3.3-6.1,5.2-4.7,5.2-1.7c0,0.4,0,0.9-0.1,1.3s-0.2,0.9-0.3,1.4
		c-0.2,0.6-0.5,1.3-0.8,1.9c-0.9,1.6-1.8,3.1-3.3,4.4c-0.5,0.4-1,0.8-1.6,1.2c-0.8,0.5-1.7,1-2.8,1.4
		C413.8,297.5,414.2,295.9,414.8,294.2z M376.1,297.4c-0.6-0.4-1.1-0.8-1.6-1.2c-1.4-1.3-2.4-2.8-3.3-4.4c-0.3-0.6-0.6-1.3-0.8-1.9
		c-0.5-1.5-0.6-3.1-0.3-4.1c0-0.1,0.1-0.2,0.1-0.3c0.1-0.1,0.1-0.3,0.2-0.4c0.7-1.2,2.4-0.8,4.8,3.7c2.1,3.9,3.2,7.3,3.8,10
		C377.8,298.4,376.9,297.9,376.1,297.4z"/>
	<linearGradient id="SVGID_3_" gradientUnits="userSpaceOnUse" x1="405.2007" y1="214.3431" x2="380.6592" y2="528.8613">
		<stop  offset="0.2135" style="stop-color:#8DC124"/>
		<stop  offset="0.5432" style="stop-color:#008937"/>
		<stop  offset="0.7649" style="stop-color:#00612F"/>
	</linearGradient>
	<path class="st2" d="M496,320c-7.2-1.6-17.6-0.1-25.4,4.8c-4.4,2.5-8.6,6.1-11.2,11.1c-6.8,12.6,0.6,29.2,4.6,35.7
		c4,6.5,7.6,15.3-1.8,21.7c-9.4,6.4-19.6,0.2-24.8-7.2c-3.6-5.2-5-10.8-5.4-14.4c0,0,0,0,0,0c-0.1-8.5-1.1-25.8,11.2-40.1
		c18.4-21.4,39.8-47.7,33.7-82.7c-6.1-35-45.2-55.7-79.6-55h-3.3c-34.5-0.7-73.5,20-79.6,55c-6.1,35,15.3,61.3,33.7,82.7
		c11.3,13.1,11.3,28.8,11.2,37.9c0,0,0,0,0,0c0,0.1,0,0.2,0,0.4c0,0.2,0,0.3,0,0.5c-0.1,3.4-1.3,9.8-5.5,15.7
		c-5.2,7.4-15.4,13.6-24.8,7.2c-9.4-6.4-5.8-15.2-1.8-21.7c4-6.5,11.4-23.1,4.6-35.7c-2.7-5-6.9-8.6-11.2-11.1
		c-7.8-4.9-18.3-6.4-25.4-4.8c-12.4,2.8-20.3,12.5-17.9,23.8c2.3,10.7,14.1,13.7,19.4,12.8c4.2-0.8,9-3.2,11.3-8.2
		c-0.3,0-0.6,0-0.9,0c-2.6,0-4.7-1-6.2-2.5c-0.3,0.5-0.6,0.9-1,1.3c-2.5,2-7.6,3.8-12.3-1c-2.3-2.3-3.2-5.8-2.3-9.4
		c1-3.8,4.2-7.7,11.5-9.3c3.2-0.7,6.2-0.8,9.1-0.4c4.4,0.8,13.8,3.6,17.8,12c5.3,11.3-0.2,21.2-5.5,30.2c-5.3,9.1-8.2,22.7,3.3,30.9
		c11.5,8.2,34.5,6.3,43.8-12.6c1.4-2.8,2.9-6.3,3.2-8.7c0,0,0,0,0,0c4.5-25.3-4.1-42.6-14.9-55.1c-16.3-18.9-35.2-42.2-29.8-73.2
		c5.4-31,40-49.3,70.5-48.7h2.9c30.5-0.6,65,17.7,70.5,48.7c5.4,31-13.5,54.3-29.8,73.2c-10.8,12.5-19.4,29.7-14.9,55
		c0,0-0.1,0.1-0.1,0.1c0.4,2.4,1.9,5.9,3.2,8.7c9.3,18.9,32.3,20.8,43.8,12.6c11.5-8.2,8.6-21.8,3.3-30.9c-5.3-9.1-10.8-19-5.5-30.2
		c4-8.5,13.3-11.2,17.8-12c2.9-0.4,5.9-0.2,9.1,0.4c7.3,1.6,10.5,5.5,11.5,9.3c1,3.6,0,7.1-2.3,9.4c-4.6,4.7-9.7,3.1-12.2,1.1
		c-1.1,0.6-2.5,1-4.1,1c-1.8,0-3.4-0.5-4.6-1.3c2,5.9,7.2,8.7,11.8,9.5c5.3,0.9,17.1-2,19.4-12.8C516.3,332.5,508.4,322.8,496,320z"
		/>
	<g>
		<linearGradient id="SVGID_4_" gradientUnits="userSpaceOnUse" x1="204.8042" y1="223.4235" x2="479.2801" y2="521.6668">
			<stop  offset="0.1054" style="stop-color:#39C6FB"/>
			<stop  offset="0.5194" style="stop-color:#5A48F0"/>
		</linearGradient>
		<path class="st3" d="M398.3,446.9c-23.9,0-46.5-5.9-66.2-16.4c-3.4,1-8.5,2.1-14.9,2.9c23.4,14.9,51.3,23.6,81.1,23.6
			c29.7,0,57.5-8.6,80.9-23.4c-6.4-0.8-11.8-1.7-15.4-2.7C444.1,441.3,422,446.9,398.3,446.9z"/>
		<linearGradient id="SVGID_5_" gradientUnits="userSpaceOnUse" x1="162.1176" y1="262.7083" x2="436.5934" y2="560.9517">
			<stop  offset="2.972973e-02" style="stop-color:#D6DD00"/>
			<stop  offset="0.2135" style="stop-color:#8DC124"/>
			<stop  offset="0.5432" style="stop-color:#008937"/>
			<stop  offset="0.7649" style="stop-color:#00612F"/>
		</linearGradient>
		<path class="st4" d="M295.7,402.8c-2.3,1.3-4.8,2-7.5,2c-1.3,0.2-2.6,0.3-4,0.3c5.6,6.5,11.8,12.4,18.5,17.8
			c3.7-0.1,9-0.5,14.5-1.6C309.4,415.9,302.2,409.7,295.7,402.8z"/>
		<linearGradient id="SVGID_6_" gradientUnits="userSpaceOnUse" x1="267.7538" y1="165.4905" x2="542.2296" y2="463.7338">
			<stop  offset="0.1054" style="stop-color:#39C6FB"/>
			<stop  offset="0.5194" style="stop-color:#5A48F0"/>
		</linearGradient>
		<path class="st5" d="M508.2,405.5c-3.1,0-5.9-0.5-8.6-1.4c-6.3,6.5-13.2,12.3-20.6,17.5c5.8,1.1,11.3,1.4,14.8,1.4
			c6.8-5.5,13-11.6,18.7-18.1C511.1,405.3,509.7,405.5,508.2,405.5z"/>
	</g>
	<linearGradient id="SVGID_7_" gradientUnits="userSpaceOnUse" x1="204.8042" y1="223.4235" x2="479.2801" y2="521.6668">
		<stop  offset="2.972973e-02" style="stop-color:#D6DD00"/>
		<stop  offset="0.2135" style="stop-color:#8DC124"/>
		<stop  offset="0.5432" style="stop-color:#008937"/>
		<stop  offset="0.7649" style="stop-color:#00612F"/>
	</linearGradient>
	<path class="st6" d="M398.3,446.9c-23.9,0-46.5-5.9-66.2-16.4c-3.4,1-8.5,2.1-14.9,2.9c23.4,14.9,51.3,23.6,81.1,23.6
		c29.7,0,57.5-8.6,80.9-23.4c-6.4-0.8-11.8-1.7-15.4-2.7C444.1,441.3,422,446.9,398.3,446.9z"/>
	<linearGradient id="SVGID_8_" gradientUnits="userSpaceOnUse" x1="503.2142" y1="399.3979" x2="483.2684" y2="436.6552">
		<stop  offset="2.972973e-02" style="stop-color:#D6DD00"/>
		<stop  offset="0.2135" style="stop-color:#8DC124"/>
		<stop  offset="0.5432" style="stop-color:#008937"/>
		<stop  offset="0.7649" style="stop-color:#00612F"/>
	</linearGradient>
	<path class="st7" d="M508.2,405.5c-3.1,0-5.9-0.5-8.6-1.4c-6.3,6.5-13.2,12.3-20.6,17.5c5.8,1.1,11.3,1.4,14.8,1.4
		c6.8-5.5,13-11.6,18.7-18.1C511.1,405.3,509.7,405.5,508.2,405.5z"/>
	<linearGradient id="SVGID_9_" gradientUnits="userSpaceOnUse" x1="272.5764" y1="161.0522" x2="547.0523" y2="459.2955">
		<stop  offset="0.1054" style="stop-color:#00A85F"/>
		<stop  offset="0.5194" style="stop-color:#00612F"/>
	</linearGradient>
	<path class="st8" d="M398.3,164.2c78.1,0,141.4,63.3,141.4,141.4c0,18.3-3.5,35.7-9.8,51.8c3.2,1.3,6,3.2,8.7,5.2
		c7.1-17.6,11.1-36.8,11.1-57c0-83.6-67.8-151.5-151.5-151.5s-151.5,67.8-151.5,151.5c0,19.1,3.5,37.3,10,54.1c3-1.6,6.1-2.9,9.2-4
		c-5.9-15.6-9.1-32.5-9.1-50.1C256.9,227.5,320.2,164.2,398.3,164.2z"/>
	<linearGradient id="SVGID_10_" gradientUnits="userSpaceOnUse" x1="507.0763" y1="358.3023" x2="221.8667" y2="174.2961">
		<stop  offset="0.2135" style="stop-color:#8DC124"/>
		<stop  offset="0.5432" style="stop-color:#008937"/>
		<stop  offset="0.7649" style="stop-color:#00612F"/>
	</linearGradient>
	<path class="st9" d="M398.3,154.1c-83.6,0-151.5,67.8-151.5,151.5c0,19.1,3.5,37.3,10,54.1c3-1.6,6.1-2.9,9.2-4
		c-0.2-0.4-0.3-0.9-0.5-1.3c-1.3,0.6-2.7,1.2-4,1.9c-6.2-16.2-9.6-33.9-9.6-52.3c0-80.8,65.5-146.4,146.4-146.4
		S544.6,223.1,544.6,304c0,19.5-3.8,38.1-10.7,55.1c-1.2-0.9-2.4-1.8-3.7-2.6c-0.1,0.3-0.2,0.6-0.3,0.8c3.2,1.3,6,3.2,8.7,5.2
		c7.1-17.6,11.1-36.8,11.1-57C549.7,221.9,481.9,154.1,398.3,154.1z"/>
	<linearGradient id="SVGID_11_" gradientUnits="userSpaceOnUse" x1="373.738" y1="406.9392" x2="460.3742" y2="501.2424">
		<stop  offset="2.972973e-02" style="stop-color:#D6DD00"/>
		<stop  offset="0.2135" style="stop-color:#8DC124"/>
		<stop  offset="0.5432" style="stop-color:#008937"/>
		<stop  offset="0.7649" style="stop-color:#00612F"/>
	</linearGradient>
	<path class="st10" d="M397.3,450.2c-25.7,0-49.9-6.6-70.9-18.3c-2.6,0.6-5.7,1.1-9.2,1.6c23.4,14.9,51.3,23.6,81.1,23.6
		c29.7,0,57.5-8.6,80.9-23.4c-4.2-0.5-8-1.1-11.1-1.7C447.1,443.5,423,450.2,397.3,450.2z"/>
	<linearGradient id="SVGID_12_" gradientUnits="userSpaceOnUse" x1="189.646" y1="301.298" x2="395.2775" y2="524.7356">
		<stop  offset="0.1054" style="stop-color:#39C6FB"/>
		<stop  offset="0.5194" style="stop-color:#5A48F0"/>
	</linearGradient>
	<path class="st11" d="M284.2,405.2c5.6,6.5,11.8,12.4,18.5,17.8"/>
	<linearGradient id="SVGID_13_" gradientUnits="userSpaceOnUse" x1="293.0693" y1="399.3722" x2="317.5728" y2="473.7656">
		<stop  offset="2.972973e-02" style="stop-color:#D6DD00"/>
		<stop  offset="0.2135" style="stop-color:#8DC124"/>
		<stop  offset="0.5432" style="stop-color:#008937"/>
		<stop  offset="0.7649" style="stop-color:#00612F"/>
	</linearGradient>
	<path class="st12" d="M291,404.5c-0.9,0.2-1.8,0.3-2.8,0.3c-1.3,0.2-2.6,0.3-4,0.3c5.6,6.5,11.8,12.4,18.5,17.8
		c2.4-0.1,5.4-0.2,8.6-0.7C304,417,297.2,411.1,291,404.5z"/>
	<g>
		<linearGradient id="SVGID_14_" gradientUnits="userSpaceOnUse" x1="175.058" y1="324.3598" x2="624.9667" y2="324.3598">
			<stop  offset="2.972973e-02" style="stop-color:#D6DD00"/>
			<stop  offset="0.2135" style="stop-color:#8DC124"/>
			<stop  offset="0.5432" style="stop-color:#008937"/>
			<stop  offset="0.7649" style="stop-color:#00612F"/>
		</linearGradient>
		<path class="st13" d="M256.9,358.5c-6.4-16.8-10-35-10-54.1c0-5.2,0.3-10.3,0.8-15.3c-0.6,5.4-0.9,10.9-0.9,16.5
			c0,19.1,3.5,37.3,10,54.1c3-1.6,6.1-2.9,9.2-4c-0.1-0.3-0.2-0.6-0.4-1C262.7,355.7,259.8,357,256.9,358.5z"/>
		<linearGradient id="SVGID_15_" gradientUnits="userSpaceOnUse" x1="175.058" y1="342.7863" x2="624.9667" y2="342.7863">
			<stop  offset="0.1054" style="stop-color:#00A85F"/>
			<stop  offset="0.5194" style="stop-color:#00612F"/>
		</linearGradient>
		<path class="st14" d="M530.2,356.5c-0.1,0.3-0.2,0.6-0.3,0.8c3.2,1.3,6,3.2,8.7,5.2c5-12.4,8.5-25.7,10.1-39.5
			c-1.6,13.4-5,26.3-10,38.3c-1.5-1.1-3-2.2-4.6-3.1"/>
		<linearGradient id="SVGID_16_" gradientUnits="userSpaceOnUse" x1="175.058" y1="238.647" x2="624.9667" y2="238.647">
			<stop  offset="0" style="stop-color:#00A85F"/>
			<stop  offset="0.5054" style="stop-color:#FFFFFF"/>
			<stop  offset="1" style="stop-color:#00612F"/>
		</linearGradient>
		<path class="st15" d="M543.7,320.8c0.7-5.9,1.1-11.9,1.1-18c0-80.8-65.5-146.4-146.4-146.4c-75.8,0-138.2,57.7-145.6,131.5
			c8-73.3,70-130.4,145.5-130.4c80.8,0,146.4,65.5,146.4,146.4C544.6,309.7,544.3,315.3,543.7,320.8z"/>
	</g>
	<g>
		
			<linearGradient id="SVGID_17_" gradientUnits="userSpaceOnUse" x1="4210.1016" y1="6713.689" x2="4312.4097" y2="6713.918" gradientTransform="matrix(-1 0 0 -1 4654.7554 7155.1929)">
			<stop  offset="0" style="stop-color:#008937"/>
			<stop  offset="0.5054" style="stop-color:#FFFFFF"/>
			<stop  offset="1" style="stop-color:#00612F"/>
		</linearGradient>
		<path class="st16" d="M461,435.4c-19,9.4-40.3,14.8-62.8,14.8c-25.6,0-49.6-6.8-70.4-18.8c-0.5,0.1-1,0.3-1.5,0.4
			c21.1,12.4,45.6,19.6,71.7,19.6c22.9,0,44.4-5.5,63.6-15.2C461.4,435.8,461.2,435.6,461,435.4z"/>
	</g>
	<g>
		
			<linearGradient id="SVGID_18_" gradientUnits="userSpaceOnUse" x1="-4459.6597" y1="1105.012" x2="-4357.3516" y2="1105.2408" gradientTransform="matrix(0.2045 0.9789 -0.9789 0.2044 2517.2505 4369.9639)">
			<stop  offset="0" style="stop-color:#FFFFFF;stop-opacity:0"/>
			<stop  offset="0.5027" style="stop-color:#FFFFFF"/>
			<stop  offset="0.9514" style="stop-color:#FFFFFF;stop-opacity:0"/>
		</linearGradient>
		<path class="st17" d="M514.3,215.7c13.1,16.6,22.7,36.4,27.3,58.4c5.2,25,3.4,49.9-4,72.7c0.2,0.4,0.5,0.9,0.7,1.4
			c7.9-23.2,9.8-48.6,4.5-74.2c-4.7-22.4-14.4-42.4-27.9-59.2C514.7,215.2,514.5,215.4,514.3,215.7z"/>
	</g>
	<g>
		<linearGradient id="SVGID_19_" gradientUnits="userSpaceOnUse" x1="271.1568" y1="308.1184" x2="366.5133" y2="495.9293">
			<stop  offset="2.972973e-02" style="stop-color:#D6DD00"/>
			<stop  offset="0.2135" style="stop-color:#8DC124"/>
			<stop  offset="0.5432" style="stop-color:#008937"/>
			<stop  offset="0.7649" style="stop-color:#00612F"/>
		</linearGradient>
		<path class="st18" d="M287.2,346.3c-2.3-2.3-3.2-5.8-2.3-9.4c0.7-2.5,2.3-5.1,5.5-7c-5.7,1.8-8.4,5.3-9.3,8.7
			c-1,3.6,0,7.1,2.3,9.4c4.5,4.6,9.4,3.2,12,1.2C293,349.6,290.1,349.1,287.2,346.3z"/>
		<linearGradient id="SVGID_20_" gradientUnits="userSpaceOnUse" x1="292.5343" y1="297.2644" x2="387.8909" y2="485.0753">
			<stop  offset="2.972973e-02" style="stop-color:#D6DD00"/>
			<stop  offset="0.2135" style="stop-color:#8DC124"/>
			<stop  offset="0.5432" style="stop-color:#008937"/>
			<stop  offset="0.7649" style="stop-color:#00612F"/>
		</linearGradient>
		<path class="st19" d="M291.1,321.7c7.2-1.6,17.6-0.1,25.4,4.8c4.4,2.5,8.6,6.1,11.2,11.1c6.8,12.6-0.6,29.2-4.6,35.7
			c-4,6.5-7.6,15.3,1.8,21.7c5.7,3.9,11.8,3.1,16.8,0.2c-4.1,1.3-8.7,1.1-13-1.9c-9.4-6.4-5.8-15.2-1.8-21.7
			c4-6.5,11.4-23.1,4.6-35.7c-2.7-5-6.9-8.6-11.2-11.1c-7.8-4.9-18.3-6.4-25.4-4.8c-2.6,0.6-5.1,1.5-7.3,2.7
			C288.7,322.3,289.9,322,291.1,321.7z"/>
		<linearGradient id="SVGID_21_" gradientUnits="userSpaceOnUse" x1="278.6765" y1="304.3004" x2="374.0331" y2="492.1113">
			<stop  offset="2.972973e-02" style="stop-color:#D6DD00"/>
			<stop  offset="0.2135" style="stop-color:#8DC124"/>
			<stop  offset="0.5432" style="stop-color:#008937"/>
			<stop  offset="0.7649" style="stop-color:#00612F"/>
		</linearGradient>
		<path class="st20" d="M305.3,348.8c-0.3,0-0.6,0-0.9,0c-1.2,3.4-3.4,5.8-6,7.4c3.6-1.1,7.2-3.5,9.1-7.6
			C306.9,348.7,306.2,348.8,305.3,348.8z"/>
		<linearGradient id="SVGID_22_" gradientUnits="userSpaceOnUse" x1="414.2381" y1="235.4722" x2="509.5947" y2="423.2831">
			<stop  offset="2.972973e-02" style="stop-color:#D6DD00"/>
			<stop  offset="0.2135" style="stop-color:#8DC124"/>
			<stop  offset="0.5432" style="stop-color:#008937"/>
			<stop  offset="0.7649" style="stop-color:#00612F"/>
		</linearGradient>
		<path class="st21" d="M390.1,195.6h1.6h0.1h1.6c34.5-0.7,73.5,20,79.6,55c6.1,35-15.3,61.3-33.7,82.7
			c-12.3,14.3-11.3,31.5-11.2,40.1c0,0,0,0,0,0c0.4,3.6,1.7,9.2,5.4,14.4c5,7.2,14.9,13.3,24.1,7.6c-8.1,2.3-16-3.1-20.4-9.3
			c-3.6-5.2-5-10.8-5.4-14.4c0,0,0,0,0,0c-0.1-8.5-1.1-25.8,11.2-40.1c18.4-21.4,39.8-47.7,33.7-82.7c-6.1-35-45.2-55.7-79.6-55
			h-1.6h-0.1h-1.6c-13.7-0.3-28.2,2.8-41,8.9C364.7,197.9,377.7,195.3,390.1,195.6z"/>
		<linearGradient id="SVGID_23_" gradientUnits="userSpaceOnUse" x1="430.8282" y1="227.049" x2="526.1848" y2="414.8599">
			<stop  offset="2.972973e-02" style="stop-color:#D6DD00"/>
			<stop  offset="0.2135" style="stop-color:#8DC124"/>
			<stop  offset="0.5432" style="stop-color:#008937"/>
			<stop  offset="0.7649" style="stop-color:#00612F"/>
		</linearGradient>
		<path class="st22" d="M491.3,347.3c-0.4-0.3-0.7-0.7-1-1.2c-0.9,0.3-1.9,0.5-3.1,0.5c-0.4,0-0.8,0-1.2-0.1
			c0.3,0.9,0.7,1.7,1.5,2.4c2.3,1.8,6.5,3.4,10.8,0.3C495.5,349.7,492.9,348.5,491.3,347.3z"/>
		<linearGradient id="SVGID_24_" gradientUnits="userSpaceOnUse" x1="336.7699" y1="274.8049" x2="432.1264" y2="462.6158">
			<stop  offset="2.972973e-02" style="stop-color:#D6DD00"/>
			<stop  offset="0.2135" style="stop-color:#8DC124"/>
			<stop  offset="0.5432" style="stop-color:#008937"/>
			<stop  offset="0.7649" style="stop-color:#00612F"/>
		</linearGradient>
		<path class="st23" d="M353.4,323.9c-16.3-18.9-35.2-42.2-29.8-73.2c3.2-18.6,16.9-32.6,33.9-40.7c-18.7,7.8-34.2,22.4-37.7,42.3
			c-5.4,31,13.5,54.3,29.8,73.2c10.8,12.5,19.4,29.8,14.9,55.1c0,0,0,0,0,0c-0.4,2.4-1.9,5.9-3.2,8.7c-3.1,6.4-7.8,10.8-13.1,13.6
			c6.8-2.5,13-7.4,16.8-15.2c1.4-2.8,2.9-6.3,3.2-8.7c0,0,0,0,0,0C372.7,353.6,364.1,336.4,353.4,323.9z"/>
		<linearGradient id="SVGID_25_" gradientUnits="userSpaceOnUse" x1="439.3464" y1="222.7241" x2="534.7029" y2="410.535">
			<stop  offset="2.972973e-02" style="stop-color:#D6DD00"/>
			<stop  offset="0.2135" style="stop-color:#8DC124"/>
			<stop  offset="0.5432" style="stop-color:#008937"/>
			<stop  offset="0.7649" style="stop-color:#00612F"/>
		</linearGradient>
		<path class="st24" d="M496,320c-6.5-1.5-15.6-0.4-23.1,3.5c6.6-2.5,13.9-3.1,19.4-1.8c12.4,2.8,20.3,12.5,17.9,23.8
			c-1.1,5-4.2,8.3-7.7,10.3c4.9-1.6,10-5.3,11.5-12C516.3,332.5,508.4,322.8,496,320z"/>
		<linearGradient id="SVGID_26_" gradientUnits="userSpaceOnUse" x1="405.6591" y1="239.828" x2="501.0157" y2="427.6389">
			<stop  offset="2.972973e-02" style="stop-color:#D6DD00"/>
			<stop  offset="0.2135" style="stop-color:#8DC124"/>
			<stop  offset="0.5432" style="stop-color:#008937"/>
			<stop  offset="0.7649" style="stop-color:#00612F"/>
		</linearGradient>
		<path class="st25" d="M467.5,339.2c2-4.3,5.4-7.1,8.9-9c-4.5,1.6-9.9,4.7-12.6,10.6c-5.3,11.3,0.2,21.2,5.5,30.2
			c5.3,9.1,8.2,22.7-3.3,30.9c-0.7,0.5-1.4,0.9-2.1,1.3c2.1-0.8,4.1-1.7,5.8-3c11.5-8.2,8.6-21.8,3.3-30.9
			C467.6,360.3,462.2,350.4,467.5,339.2z"/>
	</g>
	<linearGradient id="SVGID_27_" gradientUnits="userSpaceOnUse" x1="315.8253" y1="207.3696" x2="291.2839" y2="521.887">
		<stop  offset="2.972973e-02" style="stop-color:#D6DD00"/>
		<stop  offset="0.2135" style="stop-color:#8DC124"/>
		<stop  offset="0.5432" style="stop-color:#008937"/>
		<stop  offset="0.7649" style="stop-color:#00612F"/>
	</linearGradient>
	<path class="st26" d="M305.5,329.1c-5.9,0-10.6,4.8-10.6,10.6s4.8,10.6,10.6,10.6c5.9,0,10.6-4.8,10.6-10.6
		S311.4,329.1,305.5,329.1z M305.5,344.4c-2.6,0-4.7-2.1-4.7-4.7s2.1-4.7,4.7-4.7c2.6,0,4.7,2.1,4.7,4.7S308.1,344.4,305.5,344.4z"
		/>
	<linearGradient id="SVGID_28_" gradientUnits="userSpaceOnUse" x1="495.8972" y1="221.4202" x2="471.3558" y2="535.938">
		<stop  offset="2.972973e-02" style="stop-color:#D6DD00"/>
		<stop  offset="0.2135" style="stop-color:#8DC124"/>
		<stop  offset="0.5432" style="stop-color:#008937"/>
		<stop  offset="0.7649" style="stop-color:#00612F"/>
	</linearGradient>
	<path class="st27" d="M496.6,335.9c-2.1-5.5-8.3-8.2-13.7-6.1c-5.5,2.1-8.2,8.3-6.1,13.7c2.1,5.5,8.3,8.2,13.7,6.1
		C496,347.5,498.7,341.3,496.6,335.9z M486.7,344.4c-2.6,0-4.7-2.1-4.7-4.7s2.1-4.7,4.7-4.7c2.6,0,4.7,2.1,4.7,4.7
		S489.3,344.4,486.7,344.4z"/>
	<linearGradient id="SVGID_29_" gradientUnits="userSpaceOnUse" x1="409.9336" y1="214.7124" x2="385.3921" y2="529.2307">
		<stop  offset="0.2135" style="stop-color:#8DC124"/>
		<stop  offset="0.5432" style="stop-color:#008937"/>
		<stop  offset="0.7649" style="stop-color:#00612F"/>
	</linearGradient>
	<path class="st28" d="M549.7,388.7c-0.1-0.9-0.2-1.8-0.4-2.7c-0.1-0.6-0.2-1.2-0.4-1.8c-0.2-1-0.5-1.9-0.8-2.9
		c-0.2-0.6-0.4-1.2-0.6-1.7c-0.2-0.6-0.5-1.1-0.7-1.7c-0.2-0.6-0.5-1.1-0.8-1.6c-1.1-2.2-2.4-4.2-3.8-6.1
		c-3.6-4.6-8.1-8.2-12.6-10.3c-2.3-1-4.6-1.8-6.9-2.3c-1.4-0.3-2.8-0.5-4.2-0.6c-6-0.4-12,1-17.1,3.8c-0.1,0.1-0.2,0.1-0.4,0.2
		c-0.5,0.3-0.9,0.6-1.4,0.9c-1.5,1-3,2.2-4.3,3.6c-0.3,0.3-0.5,0.6-0.8,0.9c-1.4,1.6-2.6,3.3-3.7,5.2c-0.9,1.7-1.5,3.3-2,4.9
		c-0.1,0.5-0.2,0.9-0.3,1.4c-0.2,1-0.3,2.1-0.4,3.1c0,0.6,0,1.2,0,1.8c0,0.7,0.1,1.4,0.2,2.1c1,7.4,5.8,13,9.7,15.1
		c6,3.1,15.4,2.4,21.7-4.4c1.1-1.1,1.8-2.2,2.3-3.1c-3.2-0.2-5.5-1.9-6.8-4.2c-1.7,1.8-3.7,4.1-6.5,4.4c-2.4,0.2-5.7-0.3-8.2-2.3
		c-0.1-0.1-0.2-0.2-0.3-0.3c-0.2-0.2-0.4-0.4-0.6-0.6c-0.3-0.3-0.5-0.6-0.7-0.9c-0.2-0.2-0.3-0.5-0.5-0.7c-0.2-0.4-0.4-0.9-0.6-1.4
		c0-0.1-0.1-0.1-0.1-0.2c-0.4-1.2-0.6-2.6-0.6-4.3c0-1.7,0.4-3.6,1.1-5.4c0.8-2.2,2.1-4.3,3.8-6.2c0.5-0.5,1-1,1.5-1.5
		c1.1-1,2.3-1.8,3.7-2.4c0.3-0.2,0.7-0.3,1-0.5c0.7-0.3,1.4-0.5,2.2-0.7c3.8-0.9,8.4-0.6,13.6,1.8c12.4,5.8,17.8,16.7,16.7,27.4
		c-0.4,3.5-1.4,7.1-3.2,10.3c-0.9,1.6-1.9,3.2-3,4.6c-0.3,0.4-0.5,0.7-0.9,1c-28.9,25.6-80.8,11.9-102.2-4.5
		c-10.9-8.4-15.8-26.7-15.8-26.7c-2.2-7.2-4-16.1-4.7-27.7c0-0.7-0.1-1.5-0.1-2.2c-0.1-2.2-0.2-4.6-0.2-7.1c0-0.8,0-1.6,0-2.5
		c0-5.1,0.2-10.6,0.6-16.6c0.1-2,0.3-4.1,0.5-6.2c0-0.2,0-0.5,0.1-0.8c0.1-1.2,0.2-2.4,0.3-3.6c0.1-0.5,0.1-1,0.2-1.5
		c0-0.4,0.1-0.8,0.1-1.2c0.1-1,0.2-1.9,0.3-2.9c1.7-0.5,3.7-1.6,5.9-3.1c0.4-0.3,0.8-0.6,1.2-0.9c0.9-0.7,1.8-1.5,2.7-2.4l0,0
		c0.4-0.4,0.8-0.8,1.2-1.3c0.3-0.3,0.5-0.6,0.8-0.9c2.8-3.4,4.9-7.6,5.2-12.5c0-0.5,0-1,0-1.5c-0.1-5.8-3.2-8.9-7.2-9c0,0,0,0,0,0
		c-2.6,0-5.6,1.3-8.3,4c-0.3,0.3-0.7,0.7-1,1.1c-1.2,1.4-2.4,3.1-3.4,5.1c-1.8,3.5-3.2,7.9-3.9,13.2c0,0-2.2,0-4.8,0c0,0,0,0,0,0
		c-0.5,0-1-0.1-1.6-0.1c0,0-0.1,0-0.1,0c-0.2,0-0.5,0-0.8,0c-0.1,0-0.1,0-0.2,0c-0.3,0-0.6,0-1,0c-1,0-2.2,0-3.4,0
		c-0.3,0-0.6,0-0.9,0c-3.3,0-6.6,0-6.6,0c-0.8-5.9-2.4-10.7-4.4-14.3c-1.2-2.1-2.5-3.8-3.9-5.1c-6.9-6.8-15.3-4.7-15.5,5
		c0,0.5,0,1,0,1.5c0.4,7.4,5.2,13.4,10,17.1c0.2,0.2,0.5,0.4,0.7,0.5c2.3,1.7,4.6,2.9,6.4,3.4c0,0,0,0,0,0c0.1,1.2,0.3,2.4,0.4,3.5
		c0,0,0,0,0,0c0.1,1.2,0.2,2.3,0.4,3.4c0.1,1,0.2,2,0.3,2.9c0.2,2.1,0.4,4.2,0.5,6.2c0.3,4,0.5,7.8,0.5,11.4
		c0.2,6.3,0.1,11.9-0.3,17c-0.2,3.6-0.6,7-1,10.1c-0.1,0.6-0.2,1.2-0.3,1.8c-0.2,1.2-0.4,2.4-0.6,3.5c-0.1,0.5-0.2,0.9-0.2,1.3
		c0,0-0.1,0-0.1,0c-0.8,4-1.7,7.6-2.7,10.9c0,0-5.3,17.4-16.2,25.8c-21.4,16.4-72.8,31-101.7,5.4c-0.3-0.3-0.6-0.7-0.9-1
		c-1.1-1.4-2.1-2.9-3-4.6c-1.8-3.3-2.9-6.8-3.2-10.3c-1.1-10.6,4.3-21.5,16.7-27.4c5.2-2.4,9.7-2.8,13.6-1.8
		c0.8,0.2,1.5,0.4,2.2,0.7c0.4,0.1,0.7,0.3,1,0.5c1.4,0.7,2.6,1.5,3.7,2.4c0.5,0.5,1.1,1,1.5,1.5c1.7,1.9,3,4,3.8,6.2
		c0.7,1.9,1.1,3.7,1.1,5.4c0,1.7-0.2,3.1-0.6,4.3c0,0.1,0,0.1-0.1,0.2c-0.2,0.5-0.4,1-0.6,1.4c-0.1,0.3-0.3,0.5-0.5,0.7
		c-0.2,0.3-0.5,0.6-0.7,0.9c-0.2,0.2-0.4,0.4-0.6,0.6c-0.1,0.1-0.2,0.2-0.3,0.3c-2.5,2-5.8,2.5-8.2,2.3c-1.5-0.1-2.8-0.9-4-1.9
		c-0.5,2.9-2.4,5.4-5.8,6c6.2,5.6,14.9,6.1,20.5,3.1c3.9-2,8.7-7.7,9.7-15.1c0.1-0.7,0.1-1.4,0.2-2.1c0-0.6,0-1.2,0-1.8
		c-0.1-1-0.2-2-0.4-3.1c-0.1-0.5-0.2-0.9-0.3-1.4c-0.4-1.6-1.1-3.2-2-4.9c-1-1.9-2.3-3.7-3.7-5.2c-0.3-0.3-0.5-0.6-0.8-0.9
		c-1.3-1.3-2.8-2.5-4.3-3.6c-0.5-0.3-0.9-0.6-1.4-0.9c-0.1-0.1-0.2-0.1-0.4-0.2c-5.1-2.9-11-4.2-17.1-3.8c-1.4,0.1-2.8,0.3-4.2,0.6
		c-2.3,0.5-4.7,1.2-6.9,2.3c-4.5,2.1-9,5.7-12.6,10.3c-1.4,1.9-2.7,3.9-3.8,6.1c-0.3,0.5-0.5,1.1-0.8,1.6c-0.2,0.6-0.5,1.1-0.7,1.7
		c-0.2,0.6-0.4,1.2-0.6,1.7c-0.3,0.9-0.6,1.9-0.8,2.9c-0.1,0.6-0.3,1.2-0.4,1.8c-0.2,0.9-0.3,1.8-0.4,2.7c-0.2,1.9-0.2,3.9,0,5.9
		c0.5,5.3,2.7,10.7,6.1,16.4c10.2,16.9,35.3,21.4,36.8,21.5c54.6,3.2,76.6-14.6,89.6-31.4c1.2-1.6,2.2-3.3,3.2-4.9c0,0,0,0,0,0
		c0.2-0.3,0.4-0.6,0.5-0.9c0.4-0.7,0.8-1.5,1.2-2.2c0.2-0.4,0.4-0.7,0.5-1.1c0.4-0.7,0.7-1.4,1-2c0.3-0.7,0.6-1.3,0.9-1.9
		c0.3-0.6,0.5-1.2,0.7-1.7c0.3-0.8,0.6-1.6,0.9-2.3c0.9-2.6,1.3-4.1,1.3-4.1s0,0,0-0.1c0.1-0.2,0.2-0.6,0.3-1.2
		c0.8-2.9,1.4-5.9,1.9-8.8c0.6-3.7,1.1-7.5,1.3-11.4c0.3-3.8,0.4-7.7,0.4-11.5c0-11-0.8-21.9-1.5-31.7c-0.1-1.2-0.2-2.4-0.2-3.6
		c0-0.1,0-0.2,0-0.2c-0.1-1.2-0.1-2.3-0.2-3.4c0,0,0,0,0-0.1c0,0,0,0,0-0.1c0,0,0,0,0-0.1c0,0,0,0,0,0c0-0.1,0-0.2,0-0.3
		c0,0,0,0,0-0.1c0-0.2,0-0.5-0.1-0.5l1.3,0l0.8,0l9.4,0.1c0,0,0,0,0,0c0,0,0.1,0,0.2-0.1c0,0,0,0,0,0l0.8,0l5.3,0c0,0,0,0.2,0,0.3
		c0,0.2,0,0.4-0.1,0.6c0,0.1,0,0.2,0,0.2c-0.1,1.4-0.2,2.8-0.2,4.2c0,0.1,0,0.2,0,0.3c-0.1,1.4-0.2,2.8-0.3,4.3
		c-0.1,1.3-0.2,2.6-0.3,3.9c-0.1,1.2-0.2,2.4-0.2,3.6c-0.1,0.9-0.1,1.8-0.2,2.7c-0.1,1.3-0.2,2.6-0.2,3.9c-0.1,2.3-0.2,4.7-0.3,7.1
		c0,1.5-0.1,2.9-0.1,4.4c0,0.1,0,0.1,0,0.2c0,1.5,0,3,0,4.5v0c0,4.6,0.2,9.2,0.6,13.8c0.3,3,0.7,6.1,1.2,9.1c0.5,3,1.1,5.9,1.9,8.8
		c0,0.1,0,0.2,0,0.3c0.1,0.4,0.2,0.8,0.2,0.9c0,0.1,0,0.1,0,0.1s0.4,1.6,1.3,4.1c0.3,0.7,0.6,1.5,0.9,2.3c0.2,0.6,0.5,1.1,0.7,1.7
		s0.6,1.2,0.9,1.9c0.3,0.7,0.6,1.3,1,2c0.2,0.3,0.4,0.7,0.5,1.1c0.4,0.7,0.8,1.4,1.2,2.2c1.1,1.8,2.2,3.8,3.7,5.7
		c12.9,16.8,35,34.7,89.6,31.4c1.4-0.1,26.6-4.6,36.8-21.5c3.4-5.7,5.6-11.1,6.1-16.4C549.9,392.6,549.9,390.6,549.7,388.7z
		 M414.8,294.2c0.2-0.4,0.3-0.8,0.5-1.3c0.5-1.3,1.2-2.7,1.9-4.2c3.3-6.1,5.2-4.7,5.2-1.7c0,0.4,0,0.9-0.1,1.3s-0.2,0.9-0.3,1.4
		c-0.2,0.6-0.5,1.3-0.8,1.9c-0.9,1.6-1.8,3.1-3.3,4.4c-0.5,0.4-1,0.8-1.6,1.2c-0.8,0.5-1.7,1-2.8,1.4
		C413.8,297.5,414.2,295.9,414.8,294.2z M376.1,297.4c-0.6-0.4-1.1-0.8-1.6-1.2c-1.4-1.3-2.4-2.8-3.3-4.4c-0.3-0.6-0.6-1.3-0.8-1.9
		c-0.5-1.5-0.6-3.1-0.3-4.1c0-0.1,0.1-0.2,0.1-0.3c0.1-0.1,0.1-0.3,0.2-0.4c0.7-1.2,2.4-0.8,4.8,3.7c2.1,3.9,3.2,7.3,3.8,10
		C377.8,298.4,376.9,297.9,376.1,297.4z"/>
	<g>
		<linearGradient id="SVGID_30_" gradientUnits="userSpaceOnUse" x1="371.1714" y1="231.4438" x2="383.1714" y2="445.9438">
			<stop  offset="0.2135" style="stop-color:#8DC124"/>
			<stop  offset="0.5432" style="stop-color:#008937"/>
			<stop  offset="0.7649" style="stop-color:#00612F"/>
		</linearGradient>
		<path class="st29" d="M375.1,284.8c-2.4-4.4-4-4.9-4.8-3.7c-0.1,0.1-0.1,0.2-0.2,0.4c0,0.1-0.1,0.2-0.1,0.3
			c-0.2,0.9-0.2,2.2,0.2,3.5c0-0.1,0.1-0.1,0.1-0.2c0.7-1.2,2.4-0.8,4.8,3.7c1,1.9,1.8,3.7,2.4,5.4c0.4,0.2,0.9,0.4,1.3,0.6
			C378.3,292.1,377.2,288.7,375.1,284.8z"/>
		<linearGradient id="SVGID_31_" gradientUnits="userSpaceOnUse" x1="509.9992" y1="223.6772" x2="521.9991" y2="438.1772">
			<stop  offset="0.2135" style="stop-color:#8DC124"/>
			<stop  offset="0.5432" style="stop-color:#008937"/>
			<stop  offset="0.7649" style="stop-color:#00612F"/>
		</linearGradient>
		<path class="st30" d="M524,363c-5.2-2.4-9.7-2.8-13.6-1.8c-0.8,0.2-1.5,0.4-2.2,0.7c-0.4,0.1-0.7,0.3-1,0.5
			c-1.4,0.7-2.6,1.5-3.7,2.4c-0.5,0.5-1.1,1-1.5,1.5c-1.7,1.9-3,4-3.8,6.2c-0.7,1.9-1.1,3.7-1.1,5.4c0,0.8,0,1.6,0.1,2.3
			c0.2-1.2,0.5-2.5,1-3.7c0.8-2.2,2.1-4.3,3.8-6.2c0.5-0.5,1-1,1.5-1.5c1.1-1,2.3-1.8,3.7-2.4c0.3-0.2,0.7-0.3,1-0.5
			c0.7-0.3,1.4-0.5,2.2-0.7c3.8-0.9,8.4-0.6,13.6,1.8c10.6,5,16,13.6,16.7,22.7C541.5,379.3,536.1,368.7,524,363z"/>
		<linearGradient id="SVGID_32_" gradientUnits="userSpaceOnUse" x1="495.9566" y1="224.4628" x2="507.9566" y2="438.9628">
			<stop  offset="0.2135" style="stop-color:#8DC124"/>
			<stop  offset="0.5432" style="stop-color:#008937"/>
			<stop  offset="0.7649" style="stop-color:#00612F"/>
		</linearGradient>
		<path class="st31" d="M519.9,391.3c-0.1,0.1-0.2,0.2-0.3,0.3c-6.3,6.7-15.8,7.5-21.7,4.4c-3.9-2-8.7-7.7-9.7-15.1
			c0-0.3,0-0.5-0.1-0.8c0,0.3-0.1,0.6-0.1,0.9c0,0.6,0,1.2,0,1.8c0,0.7,0.1,1.4,0.2,2.1c1,7.4,5.8,13,9.7,15.1
			c6,3.1,15.4,2.4,21.7-4.4c1.2-1.3,1.9-2.4,2.4-3.4C521.3,392,520.6,391.7,519.9,391.3z"/>
		<linearGradient id="SVGID_33_" gradientUnits="userSpaceOnUse" x1="414.6266" y1="229.0128" x2="426.6266" y2="443.5128">
			<stop  offset="0.2135" style="stop-color:#8DC124"/>
			<stop  offset="0.5432" style="stop-color:#008937"/>
			<stop  offset="0.7649" style="stop-color:#00612F"/>
		</linearGradient>
		<path class="st32" d="M417.3,284.8c-0.8,1.4-1.4,2.8-1.9,4.2c-0.2,0.4-0.3,0.9-0.5,1.3c-0.6,1.7-1,3.2-1.3,4.5
			c0.5-0.2,0.9-0.4,1.3-0.6c0.1-0.4,0.3-0.8,0.5-1.3c0.5-1.3,1.2-2.7,1.9-4.2c2.5-4.6,4.2-4.9,4.9-3.5c0.1-0.3,0.1-0.6,0.2-0.9
			c0.1-0.5,0.1-0.9,0.1-1.3C422.5,280.1,420.5,278.7,417.3,284.8z"/>
		<linearGradient id="SVGID_34_" gradientUnits="userSpaceOnUse" x1="415.5181" y1="228.9629" x2="427.5181" y2="443.4629">
			<stop  offset="0.2135" style="stop-color:#8DC124"/>
			<stop  offset="0.5432" style="stop-color:#008937"/>
			<stop  offset="0.7649" style="stop-color:#00612F"/>
		</linearGradient>
		<path class="st33" d="M423.7,295.4c-0.4,0.4-0.8,0.9-1.2,1.3l0,0c-0.9,0.9-1.8,1.7-2.7,2.4c-0.4,0.3-0.8,0.6-1.2,0.9
			c-2.1,1.5-4.2,2.5-5.9,3.1c-0.1,1-0.2,2-0.3,2.9c0,0.4-0.1,0.8-0.1,1.2c-0.1,0.5-0.1,1-0.2,1.5c-0.1,1.2-0.2,2.4-0.3,3.6
			c0,0.2,0,0.5-0.1,0.8c-0.2,2.1-0.4,4.2-0.5,6.2c-0.4,6-0.6,11.5-0.6,16.6c0,0.8,0,1.7,0,2.5c0,0.1,0,0.1,0,0.2
			c0-4.7,0.2-9.8,0.6-15.3c0.1-2,0.3-4.1,0.5-6.2c0-0.2,0-0.5,0.1-0.8c0.1-1.2,0.2-2.4,0.3-3.6c0.1-0.5,0.1-1,0.2-1.5
			c0-0.4,0.1-0.8,0.1-1.2c0.1-1,0.2-1.9,0.3-2.9c1.7-0.5,3.7-1.6,5.9-3.1c0.4-0.3,0.8-0.6,1.2-0.9c0.9-0.7,1.8-1.5,2.7-2.4l0,0
			c0.4-0.4,0.8-0.8,1.2-1.3c0.3-0.3,0.5-0.6,0.8-0.9c2.8-3.4,4.9-7.6,5.2-12.5c0-0.5,0-1,0-1.5c0-0.6-0.1-1.1-0.1-1.6
			c-0.5,4.5-2.5,8.5-5.1,11.7C424.2,294.8,423.9,295.1,423.7,295.4z"/>
		<linearGradient id="SVGID_35_" gradientUnits="userSpaceOnUse" x1="265.2222" y1="237.371" x2="277.2222" y2="451.8711">
			<stop  offset="0.2135" style="stop-color:#8DC124"/>
			<stop  offset="0.5432" style="stop-color:#008937"/>
			<stop  offset="0.7649" style="stop-color:#00612F"/>
		</linearGradient>
		<path class="st34" d="M268.3,367c5.2-2.4,9.7-2.8,13.6-1.8c0.8,0.2,1.5,0.4,2.2,0.7c0.4,0.1,0.7,0.3,1,0.5
			c1.4,0.7,2.6,1.5,3.7,2.4c0.5,0.5,1.1,1,1.5,1.5c1.7,1.9,3,4,3.8,6.2c0.5,1.2,0.8,2.5,1,3.7c0.1-0.7,0.2-1.4,0.1-2.3
			c0-1.7-0.4-3.6-1.1-5.4c-0.8-2.2-2.1-4.3-3.8-6.2c-0.5-0.5-1-1-1.5-1.5c-1.1-1-2.3-1.8-3.7-2.4c-0.3-0.2-0.7-0.3-1-0.5
			c-0.7-0.3-1.4-0.5-2.2-0.7c-3.8-0.9-8.4-0.6-13.6,1.8c-12.1,5.7-17.5,16.3-16.7,26.7C252.3,380.7,257.7,372,268.3,367z"/>
		<linearGradient id="SVGID_36_" gradientUnits="userSpaceOnUse" x1="367.9933" y1="231.6216" x2="379.9933" y2="446.1216">
			<stop  offset="0.2135" style="stop-color:#8DC124"/>
			<stop  offset="0.5432" style="stop-color:#008937"/>
			<stop  offset="0.7649" style="stop-color:#00612F"/>
		</linearGradient>
		<path class="st35" d="M372.6,303.1c0.2,0.2,0.5,0.4,0.7,0.5c2.3,1.7,4.6,2.9,6.4,3.4c0,0,0,0,0,0c0.1,1.2,0.3,2.4,0.4,3.5
			c0,0,0,0,0,0c0.1,1.2,0.2,2.3,0.4,3.4c0.1,1,0.2,2,0.3,2.9c0.2,2.1,0.4,4.2,0.5,6.2c0.3,4,0.5,7.8,0.5,11.4c0,1.2,0,2.4,0.1,3.6
			c0-2.4,0-5-0.1-7.6c-0.1-3.6-0.3-7.4-0.5-11.4c-0.1-2-0.3-4.1-0.5-6.2c-0.1-1-0.2-1.9-0.3-2.9c-0.1-1.1-0.2-2.3-0.4-3.4
			c0,0,0,0,0,0c-0.1-1.2-0.3-2.3-0.4-3.5c0,0,0,0,0,0c-1.8-0.6-4.1-1.8-6.4-3.4c-0.2-0.2-0.5-0.3-0.7-0.5c-4.6-3.6-9.1-9.2-9.9-16.2
			c-0.1,0.5-0.1,1-0.1,1.6c0,0.5,0,1,0,1.5C363.1,293.4,367.8,299.3,372.6,303.1z"/>
		<linearGradient id="SVGID_37_" gradientUnits="userSpaceOnUse" x1="468.3183" y1="226.009" x2="480.3183" y2="440.509">
			<stop  offset="0.2135" style="stop-color:#8DC124"/>
			<stop  offset="0.5432" style="stop-color:#008937"/>
			<stop  offset="0.7649" style="stop-color:#00612F"/>
		</linearGradient>
		<path class="st36" d="M549.7,390.6c-0.5,5.3-2.7,10.7-6.1,16.4c-10.2,16.9-35.3,21.4-36.8,21.5c-54.6,3.2-76.6-14.6-89.6-31.4
			c-1.5-1.9-2.6-3.9-3.7-5.7c-0.4-0.7-0.8-1.5-1.2-2.2c-0.2-0.4-0.4-0.7-0.5-1.1c-0.4-0.7-0.7-1.4-1-2c-0.3-0.7-0.6-1.3-0.9-1.9
			c-0.3-0.6-0.5-1.2-0.7-1.7c-0.3-0.8-0.6-1.6-0.9-2.3c-0.9-2.6-1.3-4.1-1.3-4.1s0,0,0-0.1c0-0.2-0.1-0.5-0.2-0.9c0-0.1,0-0.2,0-0.3
			c-0.8-2.9-1.4-5.9-1.9-8.8c-0.5-3-0.9-6-1.2-9.1c-0.4-4.1-0.5-8.2-0.6-12.4c0,0.9,0,1.7,0,2.6v0c0,4.6,0.2,9.2,0.6,13.8
			c0.3,3,0.6,6.1,1.2,9.1c0.5,3,1.1,5.9,1.9,8.8c0,0.1,0,0.2,0,0.3c0.1,0.4,0.2,0.8,0.2,0.9c0,0.1,0,0.1,0,0.1s0.4,1.6,1.3,4.1
			c0.3,0.7,0.6,1.5,0.9,2.3c0.2,0.6,0.5,1.1,0.7,1.7c0.3,0.6,0.6,1.2,0.9,1.9c0.3,0.7,0.6,1.3,1,2c0.2,0.3,0.4,0.7,0.5,1.1
			c0.4,0.7,0.8,1.4,1.2,2.2c1.1,1.8,2.2,3.8,3.7,5.7c12.9,16.8,35,34.7,89.6,31.4c1.4-0.1,26.6-4.6,36.8-21.5
			c3.4-5.7,5.6-11.1,6.1-16.4c0.2-1.7,0.2-3.4,0.1-5.1C549.7,389.9,549.7,390.2,549.7,390.6z"/>
		<linearGradient id="SVGID_38_" gradientUnits="userSpaceOnUse" x1="392.1124" y1="230.2723" x2="404.1124" y2="444.7723">
			<stop  offset="0.2135" style="stop-color:#8DC124"/>
			<stop  offset="0.5432" style="stop-color:#008937"/>
			<stop  offset="0.7649" style="stop-color:#00612F"/>
		</linearGradient>
		<path class="st37" d="M405,304.1c0,0,0-0.1,0-0.2c0-0.2,0-0.4,0.1-0.6c0-0.2,0-0.3,0-0.3l-5.3,0l-0.8,0l0,0
			c-0.1,0-0.1,0.1-0.2,0.1c0,0,0,0,0,0l-9.4-0.1l-0.8,0l-1.3,0c0,0.1,0,0.3,0.1,0.5c0,0,0,0,0,0.1c0,0.1,0,0.2,0,0.3c0,0,0,0,0,0
			c0,0,0,0,0,0.1c0,0,0,0.1,0,0.1c0,0,0,0.1,0,0.1c0.1,0.9,0.1,1.9,0.2,2.9l1,0l0.8,0l9.4,0.1c0,0,0,0,0,0c0,0,0.1,0,0.2-0.1l0,0
			l0.8,0l5,0C404.9,306,404.9,305.1,405,304.1z"/>
		<linearGradient id="SVGID_39_" gradientUnits="userSpaceOnUse" x1="308.4069" y1="234.9551" x2="320.4069" y2="449.4551">
			<stop  offset="0.2135" style="stop-color:#8DC124"/>
			<stop  offset="0.5432" style="stop-color:#008937"/>
			<stop  offset="0.7649" style="stop-color:#00612F"/>
		</linearGradient>
		<path class="st38" d="M388.9,354.6c-0.3,3.8-0.7,7.6-1.3,11.4c-0.5,3-1.1,5.9-1.9,8.8c-0.1,0.6-0.2,1-0.3,1.2c0,0.1,0,0.1,0,0.1
			s-0.4,1.6-1.3,4.1c-0.3,0.7-0.6,1.5-0.9,2.3c-0.2,0.6-0.5,1.1-0.7,1.7c-0.3,0.6-0.6,1.2-0.9,1.9c-0.3,0.7-0.6,1.3-1,2
			c-0.2,0.3-0.4,0.7-0.5,1.1c-0.4,0.7-0.8,1.4-1.2,2.2c-0.2,0.3-0.4,0.6-0.5,0.9c0,0,0,0,0,0c-0.9,1.6-1.9,3.3-3.2,4.9
			c-12.9,16.8-35,34.7-89.6,31.4c-1.4-0.1-26.6-4.6-36.8-21.5c-3.4-5.7-5.6-11.1-6.1-16.4c0-0.4-0.1-0.7-0.1-1.1
			c-0.1,1.7-0.1,3.4,0.1,5.1c0.5,5.3,2.7,10.7,6.1,16.4c10.2,16.9,35.3,21.4,36.8,21.5c54.6,3.2,76.6-14.6,89.6-31.4
			c1.2-1.6,2.2-3.3,3.2-4.9c0,0,0,0,0,0c0.2-0.3,0.4-0.6,0.5-0.9c0.4-0.7,0.8-1.5,1.2-2.2c0.2-0.4,0.4-0.7,0.5-1.1
			c0.4-0.7,0.7-1.4,1-2c0.3-0.7,0.6-1.3,0.9-1.9c0.3-0.6,0.5-1.2,0.7-1.7c0.3-0.8,0.6-1.6,0.9-2.3c0.9-2.6,1.3-4.1,1.3-4.1
			s0,0,0-0.1c0.1-0.2,0.2-0.6,0.3-1.2c0.8-2.9,1.4-5.9,1.9-8.8c0.6-3.7,1.1-7.5,1.3-11.4c0.3-3.8,0.4-7.7,0.4-11.5
			c0-0.9,0-1.8,0-2.6C389.3,347.8,389.1,351.2,388.9,354.6z"/>
		<linearGradient id="SVGID_40_" gradientUnits="userSpaceOnUse" x1="280.3178" y1="236.5266" x2="292.3178" y2="451.0266">
			<stop  offset="0.2135" style="stop-color:#8DC124"/>
			<stop  offset="0.5432" style="stop-color:#008937"/>
			<stop  offset="0.7649" style="stop-color:#00612F"/>
		</linearGradient>
		<path class="st39" d="M304.2,381c0-0.3-0.1-0.6-0.1-0.9c0,0.3,0,0.6-0.1,0.8c-1,7.4-5.8,13-9.7,15.1c-4.6,2.4-11.4,2.5-17.2-0.8
			c-1,0.7-2.2,1.2-3.7,1.3c6.3,5.9,15.1,6.4,20.8,3.5c3.9-2,8.7-7.7,9.7-15.1c0.1-0.7,0.1-1.4,0.2-2.1
			C304.2,382.2,304.2,381.6,304.2,381z"/>
	</g>
	<linearGradient id="SVGID_41_" gradientUnits="userSpaceOnUse" x1="285.6837" y1="205.0173" x2="261.1422" y2="519.5356">
		<stop  offset="2.972973e-02" style="stop-color:#D6DD00"/>
		<stop  offset="0.2135" style="stop-color:#8DC124"/>
		<stop  offset="0.5432" style="stop-color:#008937"/>
		<stop  offset="0.7649" style="stop-color:#00612F"/>
	</linearGradient>
	<path class="st40" d="M271.5,376.8c-5.9,0-10.6,4.8-10.6,10.6s4.8,10.6,10.6,10.6s10.6-4.8,10.6-10.6S277.3,376.8,271.5,376.8z
		 M271.5,392.1c-2.6,0-4.7-2.1-4.7-4.7s2.1-4.7,4.7-4.7s4.7,2.1,4.7,4.7S274.1,392.1,271.5,392.1z"/>
	<linearGradient id="SVGID_42_" gradientUnits="userSpaceOnUse" x1="535.2997" y1="224.4945" x2="510.7583" y2="539.0128">
		<stop  offset="2.972973e-02" style="stop-color:#D6DD00"/>
		<stop  offset="0.2135" style="stop-color:#8DC124"/>
		<stop  offset="0.5432" style="stop-color:#008937"/>
		<stop  offset="0.7649" style="stop-color:#00612F"/>
	</linearGradient>
	<path class="st41" d="M522.8,373.8c-5.9,0-10.6,4.8-10.6,10.6s4.8,10.6,10.6,10.6c5.9,0,10.6-4.8,10.6-10.6
		S528.7,373.8,522.8,373.8z M522.8,389.2c-2.6,0-4.7-2.1-4.7-4.7s2.1-4.7,4.7-4.7c2.6,0,4.7,2.1,4.7,4.7S525.4,389.2,522.8,389.2z"
		/>
</g>
</svg>
